<mxfile host="Electron" agent="Mozilla/5.0 (X11; Linux x86_64) AppleWebKit/537.36 (KHTML, like Gecko) draw.io/26.0.16 Chrome/132.0.6834.196 Electron/34.2.0 Safari/537.36" scale="1" border="0" version="26.0.16" pages="2">
  <diagram name="PÃ¡gina-1" id="_Gs4Gz2SvpA-6CIiMPY_">
    <mxGraphModel dx="2261" dy="835" grid="1" gridSize="10" guides="1" tooltips="1" connect="1" arrows="1" fold="1" page="1" pageScale="1" pageWidth="827" pageHeight="1169" math="0" shadow="0">
      <root>
        <mxCell id="0" />
        <mxCell id="1" parent="0" />
        <mxCell id="GRHGdQOCwn_ax3H8r1Y7-69" value="" style="shape=cube;whiteSpace=wrap;html=1;boundedLbl=1;backgroundOutline=1;darkOpacity=0.05;darkOpacity2=0.1;" parent="1" vertex="1">
          <mxGeometry x="340" y="430" width="212" height="120" as="geometry" />
        </mxCell>
        <mxCell id="GRHGdQOCwn_ax3H8r1Y7-68" value="" style="shape=cube;whiteSpace=wrap;html=1;boundedLbl=1;backgroundOutline=1;darkOpacity=0.05;darkOpacity2=0.1;" parent="1" vertex="1">
          <mxGeometry x="-7" y="380" width="212" height="250" as="geometry" />
        </mxCell>
        <mxCell id="GRHGdQOCwn_ax3H8r1Y7-67" value="" style="shape=cube;whiteSpace=wrap;html=1;boundedLbl=1;backgroundOutline=1;darkOpacity=0.05;darkOpacity2=0.1;" parent="1" vertex="1">
          <mxGeometry x="-15" y="60" width="212" height="250" as="geometry" />
        </mxCell>
        <mxCell id="GRHGdQOCwn_ax3H8r1Y7-88" style="edgeStyle=orthogonalEdgeStyle;rounded=0;orthogonalLoop=1;jettySize=auto;html=1;startArrow=classic;startFill=1;" parent="1" source="GRHGdQOCwn_ax3H8r1Y7-1" edge="1">
          <mxGeometry relative="1" as="geometry">
            <mxPoint x="444" y="130" as="targetPoint" />
          </mxGeometry>
        </mxCell>
        <mxCell id="GRHGdQOCwn_ax3H8r1Y7-1" value="" style="shape=cube;whiteSpace=wrap;html=1;boundedLbl=1;backgroundOutline=1;darkOpacity=0.05;darkOpacity2=0.1;" parent="1" vertex="1">
          <mxGeometry x="338" y="230" width="212" height="120" as="geometry" />
        </mxCell>
        <mxCell id="GRHGdQOCwn_ax3H8r1Y7-11" value="&lt;b&gt;&lt;u&gt;Node: MOM Broker&lt;/u&gt;&lt;/b&gt;" style="text;html=1;align=center;verticalAlign=middle;whiteSpace=wrap;rounded=0;" parent="1" vertex="1">
          <mxGeometry x="360" y="250" width="120" height="30" as="geometry" />
        </mxCell>
        <mxCell id="GRHGdQOCwn_ax3H8r1Y7-14" value="&lt;b&gt;&amp;nbsp; &amp;nbsp; &amp;nbsp; &amp;nbsp; RabbitMQ&lt;/b&gt;" style="html=1;dropTarget=0;whiteSpace=wrap;align=left;" parent="1" vertex="1">
          <mxGeometry x="390" y="290" width="130" height="40" as="geometry" />
        </mxCell>
        <mxCell id="GRHGdQOCwn_ax3H8r1Y7-15" value="" style="shape=module;jettyWidth=8;jettyHeight=4;" parent="GRHGdQOCwn_ax3H8r1Y7-14" vertex="1">
          <mxGeometry x="1" width="20" height="20" relative="1" as="geometry">
            <mxPoint x="-27" y="7" as="offset" />
          </mxGeometry>
        </mxCell>
        <mxCell id="GRHGdQOCwn_ax3H8r1Y7-22" value="" style="shape=cube;whiteSpace=wrap;html=1;boundedLbl=1;backgroundOutline=1;darkOpacity=0.05;darkOpacity2=0.1;" parent="1" vertex="1">
          <mxGeometry x="320" y="10" width="212" height="120" as="geometry" />
        </mxCell>
        <mxCell id="GRHGdQOCwn_ax3H8r1Y7-23" value="&lt;div style=&quot;&quot;&gt;&lt;b style=&quot;background-color: transparent; color: light-dark(rgb(0, 0, 0), rgb(255, 255, 255));&quot;&gt;&lt;u&gt;Node: Client&lt;/u&gt;&lt;/b&gt;&lt;/div&gt;" style="text;html=1;align=center;verticalAlign=middle;whiteSpace=wrap;rounded=0;" parent="1" vertex="1">
          <mxGeometry x="338" y="30" width="92" height="30" as="geometry" />
        </mxCell>
        <mxCell id="GRHGdQOCwn_ax3H8r1Y7-24" value="&lt;b&gt;&amp;nbsp; &amp;nbsp; &amp;nbsp; Application&lt;/b&gt;" style="html=1;dropTarget=0;whiteSpace=wrap;align=left;" parent="1" vertex="1">
          <mxGeometry x="372" y="70" width="130" height="40" as="geometry" />
        </mxCell>
        <mxCell id="GRHGdQOCwn_ax3H8r1Y7-25" value="" style="shape=module;jettyWidth=8;jettyHeight=4;" parent="GRHGdQOCwn_ax3H8r1Y7-24" vertex="1">
          <mxGeometry x="1" width="20" height="20" relative="1" as="geometry">
            <mxPoint x="-27" y="7" as="offset" />
          </mxGeometry>
        </mxCell>
        <mxCell id="GRHGdQOCwn_ax3H8r1Y7-29" value="" style="shape=cube;whiteSpace=wrap;html=1;boundedLbl=1;backgroundOutline=1;darkOpacity=0.05;darkOpacity2=0.1;" parent="1" vertex="1">
          <mxGeometry x="20" y="90" width="212" height="250" as="geometry" />
        </mxCell>
        <mxCell id="GRHGdQOCwn_ax3H8r1Y7-30" value="&lt;div style=&quot;&quot;&gt;&lt;b style=&quot;background-color: transparent; color: light-dark(rgb(0, 0, 0), rgb(255, 255, 255));&quot;&gt;&lt;u&gt;Node: Filter&lt;/u&gt;&lt;/b&gt;&lt;/div&gt;" style="text;html=1;align=center;verticalAlign=middle;whiteSpace=wrap;rounded=0;" parent="1" vertex="1">
          <mxGeometry x="38" y="110" width="92" height="30" as="geometry" />
        </mxCell>
        <mxCell id="GRHGdQOCwn_ax3H8r1Y7-31" value="" style="shape=cube;whiteSpace=wrap;html=1;boundedLbl=1;backgroundOutline=1;darkOpacity=0.05;darkOpacity2=0.1;" parent="1" vertex="1">
          <mxGeometry x="370" y="460" width="212" height="120" as="geometry" />
        </mxCell>
        <mxCell id="GRHGdQOCwn_ax3H8r1Y7-32" value="&lt;b&gt;&lt;u&gt;Node: NLP&lt;/u&gt;&lt;/b&gt;" style="text;html=1;align=center;verticalAlign=middle;whiteSpace=wrap;rounded=0;" parent="1" vertex="1">
          <mxGeometry x="392" y="480" width="80" height="30" as="geometry" />
        </mxCell>
        <mxCell id="GRHGdQOCwn_ax3H8r1Y7-33" value="&lt;b&gt;&amp;nbsp; &amp;nbsp; &amp;nbsp; Sentiment&lt;/b&gt;&lt;div&gt;&lt;b&gt;&amp;nbsp; &amp;nbsp; &amp;nbsp; &amp;nbsp;Analyzer&lt;/b&gt;&lt;/div&gt;" style="html=1;dropTarget=0;whiteSpace=wrap;align=left;" parent="1" vertex="1">
          <mxGeometry x="422" y="520" width="130" height="40" as="geometry" />
        </mxCell>
        <mxCell id="GRHGdQOCwn_ax3H8r1Y7-34" value="" style="shape=module;jettyWidth=8;jettyHeight=4;" parent="GRHGdQOCwn_ax3H8r1Y7-33" vertex="1">
          <mxGeometry x="1" width="20" height="20" relative="1" as="geometry">
            <mxPoint x="-27" y="7" as="offset" />
          </mxGeometry>
        </mxCell>
        <mxCell id="GRHGdQOCwn_ax3H8r1Y7-38" value="&lt;b&gt;&amp;nbsp; &amp;nbsp; &amp;nbsp; RuleEngine&lt;/b&gt;" style="html=1;dropTarget=0;whiteSpace=wrap;align=left;" parent="1" vertex="1">
          <mxGeometry x="70" y="150" width="130" height="40" as="geometry" />
        </mxCell>
        <mxCell id="GRHGdQOCwn_ax3H8r1Y7-39" value="" style="shape=module;jettyWidth=8;jettyHeight=4;" parent="GRHGdQOCwn_ax3H8r1Y7-38" vertex="1">
          <mxGeometry x="1" width="20" height="20" relative="1" as="geometry">
            <mxPoint x="-27" y="7" as="offset" />
          </mxGeometry>
        </mxCell>
        <mxCell id="GRHGdQOCwn_ax3H8r1Y7-44" value="&lt;span style=&quot;color: rgba(0, 0, 0, 0); font-family: monospace; font-size: 0px; text-align: start; text-wrap-mode: nowrap;&quot;&gt;%3CmxGraphModel%3E%3Croot%3E%3CmxCell%20id%3D%220%22%2F%3E%3CmxCell%20id%3D%221%22%20parent%3D%220%22%2F%3E%3CmxCell%20id%3D%222%22%20value%3D%22%26lt%3Bdiv%20style%3D%26quot%3B%26quot%3B%26gt%3B%26lt%3Bb%20style%3D%26quot%3Bbackground-color%3A%20transparent%3B%20color%3A%20light-dark(rgb(0%2C%200%2C%200)%2C%20rgb(255%2C%20255%2C%20255))%3B%26quot%3B%26gt%3B%26lt%3Bu%26gt%3BNode%3A%20Filter%26lt%3B%2Fu%26gt%3B%26lt%3B%2Fb%26gt%3B%26lt%3B%2Fdiv%26gt%3B%22%20style%3D%22text%3Bhtml%3D1%3Balign%3Dcenter%3BverticalAlign%3Dmiddle%3BwhiteSpace%3Dwrap%3Brounded%3D0%3B%22%20vertex%3D%221%22%20parent%3D%221%22%3E%3CmxGeometry%20x%3D%2268%22%20y%3D%22180%22%20width%3D%2292%22%20height%3D%2230%22%20as%3D%22geometry%22%2F%3E%3C%2FmxCell%3E%3C%2Froot%3E%3C%2FmxGraphModel%3E&lt;/span&gt;" style="shape=cube;whiteSpace=wrap;html=1;boundedLbl=1;backgroundOutline=1;darkOpacity=0.05;darkOpacity2=0.1;" parent="1" vertex="1">
          <mxGeometry x="55" y="200" width="160" height="110" as="geometry" />
        </mxCell>
        <mxCell id="GRHGdQOCwn_ax3H8r1Y7-46" value="&lt;div&gt;&lt;b&gt;&amp;nbsp; &amp;nbsp;&amp;lt;&amp;lt;Thread&amp;gt;&amp;gt;&lt;/b&gt;&lt;/div&gt;" style="text;html=1;align=left;verticalAlign=middle;whiteSpace=wrap;rounded=0;fontSize=10;" parent="1" vertex="1">
          <mxGeometry x="75" y="220" width="92" height="30" as="geometry" />
        </mxCell>
        <mxCell id="GRHGdQOCwn_ax3H8r1Y7-48" value="&lt;b&gt;&lt;font style=&quot;font-size: 10px;&quot;&gt;&amp;nbsp; &amp;nbsp; &amp;nbsp; &amp;nbsp; &amp;nbsp; &amp;nbsp; &amp;nbsp;Filter&lt;/font&gt;&lt;/b&gt;" style="html=1;dropTarget=0;whiteSpace=wrap;align=left;" parent="1" vertex="1">
          <mxGeometry x="97" y="270" width="108" height="30" as="geometry" />
        </mxCell>
        <mxCell id="GRHGdQOCwn_ax3H8r1Y7-49" value="" style="shape=module;jettyWidth=8;jettyHeight=4;" parent="GRHGdQOCwn_ax3H8r1Y7-48" vertex="1">
          <mxGeometry x="1" width="20" height="20" relative="1" as="geometry">
            <mxPoint x="-27" y="7" as="offset" />
          </mxGeometry>
        </mxCell>
        <mxCell id="GRHGdQOCwn_ax3H8r1Y7-50" value="&lt;div&gt;&lt;b&gt;Worker 1&lt;/b&gt;&lt;/div&gt;" style="text;html=1;align=center;verticalAlign=middle;whiteSpace=wrap;rounded=0;fontSize=10;" parent="1" vertex="1">
          <mxGeometry x="105" y="240" width="92" height="30" as="geometry" />
        </mxCell>
        <mxCell id="GRHGdQOCwn_ax3H8r1Y7-51" value="&lt;b&gt;&lt;font style=&quot;font-size: 41px;&quot;&gt;...&lt;/font&gt;&lt;/b&gt;" style="text;html=1;align=center;verticalAlign=middle;whiteSpace=wrap;rounded=0;" parent="1" vertex="1">
          <mxGeometry x="107" y="300" width="60" height="30" as="geometry" />
        </mxCell>
        <mxCell id="GRHGdQOCwn_ax3H8r1Y7-55" value="" style="shape=cube;whiteSpace=wrap;html=1;boundedLbl=1;backgroundOutline=1;darkOpacity=0.05;darkOpacity2=0.1;" parent="1" vertex="1">
          <mxGeometry x="29" y="410" width="212" height="250" as="geometry" />
        </mxCell>
        <mxCell id="GRHGdQOCwn_ax3H8r1Y7-56" value="&lt;div style=&quot;&quot;&gt;&lt;b style=&quot;background-color: transparent; color: light-dark(rgb(0, 0, 0), rgb(255, 255, 255));&quot;&gt;&lt;u&gt;Node: Group By&lt;/u&gt;&lt;/b&gt;&lt;/div&gt;" style="text;html=1;align=center;verticalAlign=middle;whiteSpace=wrap;rounded=0;" parent="1" vertex="1">
          <mxGeometry x="47" y="430" width="123" height="30" as="geometry" />
        </mxCell>
        <mxCell id="GRHGdQOCwn_ax3H8r1Y7-57" value="&lt;b&gt;&amp;nbsp; &amp;nbsp; &amp;nbsp; RuleEngine&lt;/b&gt;" style="html=1;dropTarget=0;whiteSpace=wrap;align=left;" parent="1" vertex="1">
          <mxGeometry x="79" y="470" width="130" height="40" as="geometry" />
        </mxCell>
        <mxCell id="GRHGdQOCwn_ax3H8r1Y7-58" value="" style="shape=module;jettyWidth=8;jettyHeight=4;" parent="GRHGdQOCwn_ax3H8r1Y7-57" vertex="1">
          <mxGeometry x="1" width="20" height="20" relative="1" as="geometry">
            <mxPoint x="-27" y="7" as="offset" />
          </mxGeometry>
        </mxCell>
        <mxCell id="GRHGdQOCwn_ax3H8r1Y7-59" value="&lt;span style=&quot;color: rgba(0, 0, 0, 0); font-family: monospace; font-size: 0px; text-align: start; text-wrap-mode: nowrap;&quot;&gt;%3CmxGraphModel%3E%3Croot%3E%3CmxCell%20id%3D%220%22%2F%3E%3CmxCell%20id%3D%221%22%20parent%3D%220%22%2F%3E%3CmxCell%20id%3D%222%22%20value%3D%22%26lt%3Bdiv%20style%3D%26quot%3B%26quot%3B%26gt%3B%26lt%3Bb%20style%3D%26quot%3Bbackground-color%3A%20transparent%3B%20color%3A%20light-dark(rgb(0%2C%200%2C%200)%2C%20rgb(255%2C%20255%2C%20255))%3B%26quot%3B%26gt%3B%26lt%3Bu%26gt%3BNode%3A%20Filter%26lt%3B%2Fu%26gt%3B%26lt%3B%2Fb%26gt%3B%26lt%3B%2Fdiv%26gt%3B%22%20style%3D%22text%3Bhtml%3D1%3Balign%3Dcenter%3BverticalAlign%3Dmiddle%3BwhiteSpace%3Dwrap%3Brounded%3D0%3B%22%20vertex%3D%221%22%20parent%3D%221%22%3E%3CmxGeometry%20x%3D%2268%22%20y%3D%22180%22%20width%3D%2292%22%20height%3D%2230%22%20as%3D%22geometry%22%2F%3E%3C%2FmxCell%3E%3C%2Froot%3E%3C%2FmxGraphModel%3E&lt;/span&gt;" style="shape=cube;whiteSpace=wrap;html=1;boundedLbl=1;backgroundOutline=1;darkOpacity=0.05;darkOpacity2=0.1;" parent="1" vertex="1">
          <mxGeometry x="64" y="520" width="160" height="110" as="geometry" />
        </mxCell>
        <mxCell id="GRHGdQOCwn_ax3H8r1Y7-60" value="&lt;div&gt;&lt;b&gt;&amp;nbsp; &amp;nbsp;&amp;lt;&amp;lt;Thread&amp;gt;&amp;gt;&lt;/b&gt;&lt;/div&gt;" style="text;html=1;align=left;verticalAlign=middle;whiteSpace=wrap;rounded=0;fontSize=10;" parent="1" vertex="1">
          <mxGeometry x="84" y="540" width="92" height="30" as="geometry" />
        </mxCell>
        <mxCell id="GRHGdQOCwn_ax3H8r1Y7-61" value="&lt;b&gt;&lt;font style=&quot;font-size: 10px;&quot;&gt;&amp;nbsp; &amp;nbsp; &amp;nbsp; &amp;nbsp;Group By&lt;/font&gt;&lt;/b&gt;" style="html=1;dropTarget=0;whiteSpace=wrap;align=left;" parent="1" vertex="1">
          <mxGeometry x="106" y="590" width="108" height="30" as="geometry" />
        </mxCell>
        <mxCell id="GRHGdQOCwn_ax3H8r1Y7-62" value="" style="shape=module;jettyWidth=8;jettyHeight=4;" parent="GRHGdQOCwn_ax3H8r1Y7-61" vertex="1">
          <mxGeometry x="1" width="20" height="20" relative="1" as="geometry">
            <mxPoint x="-27" y="7" as="offset" />
          </mxGeometry>
        </mxCell>
        <mxCell id="GRHGdQOCwn_ax3H8r1Y7-63" value="&lt;div&gt;&lt;b&gt;Worker 1&lt;/b&gt;&lt;/div&gt;" style="text;html=1;align=center;verticalAlign=middle;whiteSpace=wrap;rounded=0;fontSize=10;" parent="1" vertex="1">
          <mxGeometry x="114" y="560" width="92" height="30" as="geometry" />
        </mxCell>
        <mxCell id="GRHGdQOCwn_ax3H8r1Y7-64" value="&lt;b&gt;&lt;font style=&quot;font-size: 41px;&quot;&gt;...&lt;/font&gt;&lt;/b&gt;" style="text;html=1;align=center;verticalAlign=middle;whiteSpace=wrap;rounded=0;" parent="1" vertex="1">
          <mxGeometry x="116" y="620" width="60" height="30" as="geometry" />
        </mxCell>
        <mxCell id="GRHGdQOCwn_ax3H8r1Y7-65" style="edgeStyle=orthogonalEdgeStyle;rounded=0;orthogonalLoop=1;jettySize=auto;html=1;exitX=0;exitY=0;exitDx=212;exitDy=135;exitPerimeter=0;entryX=0.005;entryY=0.344;entryDx=0;entryDy=0;entryPerimeter=0;startArrow=classic;startFill=1;" parent="1" source="GRHGdQOCwn_ax3H8r1Y7-29" target="GRHGdQOCwn_ax3H8r1Y7-1" edge="1">
          <mxGeometry relative="1" as="geometry">
            <Array as="points">
              <mxPoint x="280" y="225" />
              <mxPoint x="280" y="271" />
            </Array>
          </mxGeometry>
        </mxCell>
        <mxCell id="GRHGdQOCwn_ax3H8r1Y7-66" style="edgeStyle=orthogonalEdgeStyle;rounded=0;orthogonalLoop=1;jettySize=auto;html=1;exitX=0;exitY=0;exitDx=212;exitDy=135;exitPerimeter=0;startArrow=blockThin;startFill=1;entryX=0.009;entryY=0.667;entryDx=0;entryDy=0;entryPerimeter=0;" parent="1" source="GRHGdQOCwn_ax3H8r1Y7-55" target="GRHGdQOCwn_ax3H8r1Y7-1" edge="1">
          <mxGeometry relative="1" as="geometry">
            <mxPoint x="336" y="300" as="targetPoint" />
            <Array as="points">
              <mxPoint x="280" y="545" />
              <mxPoint x="280" y="310" />
            </Array>
          </mxGeometry>
        </mxCell>
        <mxCell id="GRHGdQOCwn_ax3H8r1Y7-70" style="edgeStyle=orthogonalEdgeStyle;rounded=0;orthogonalLoop=1;jettySize=auto;html=1;exitX=0;exitY=0;exitDx=115.99999999999999;exitDy=120.00000000000001;exitPerimeter=0;entryX=0.539;entryY=0;entryDx=0;entryDy=0;entryPerimeter=0;startArrow=classic;startFill=1;" parent="1" source="GRHGdQOCwn_ax3H8r1Y7-1" target="GRHGdQOCwn_ax3H8r1Y7-69" edge="1">
          <mxGeometry relative="1" as="geometry" />
        </mxCell>
        <mxCell id="GRHGdQOCwn_ax3H8r1Y7-71" value="" style="shape=cube;whiteSpace=wrap;html=1;boundedLbl=1;backgroundOutline=1;darkOpacity=0.05;darkOpacity2=0.1;" parent="1" vertex="1">
          <mxGeometry x="630" y="140" width="212" height="270" as="geometry" />
        </mxCell>
        <mxCell id="GRHGdQOCwn_ax3H8r1Y7-72" value="" style="shape=cube;whiteSpace=wrap;html=1;boundedLbl=1;backgroundOutline=1;darkOpacity=0.05;darkOpacity2=0.1;" parent="1" vertex="1">
          <mxGeometry x="660" y="170" width="212" height="270" as="geometry" />
        </mxCell>
        <mxCell id="GRHGdQOCwn_ax3H8r1Y7-73" value="&lt;b&gt;&lt;u&gt;Node: Aggregator&lt;/u&gt;&lt;/b&gt;" style="text;html=1;align=center;verticalAlign=middle;whiteSpace=wrap;rounded=0;" parent="1" vertex="1">
          <mxGeometry x="682" y="190" width="128" height="30" as="geometry" />
        </mxCell>
        <mxCell id="GRHGdQOCwn_ax3H8r1Y7-76" value="&lt;b&gt;&amp;nbsp; &amp;nbsp; &amp;nbsp; RuleEngine&lt;/b&gt;" style="html=1;dropTarget=0;whiteSpace=wrap;align=left;" parent="1" vertex="1">
          <mxGeometry x="712" y="227.5" width="130" height="40" as="geometry" />
        </mxCell>
        <mxCell id="GRHGdQOCwn_ax3H8r1Y7-77" value="" style="shape=module;jettyWidth=8;jettyHeight=4;" parent="GRHGdQOCwn_ax3H8r1Y7-76" vertex="1">
          <mxGeometry x="1" width="20" height="20" relative="1" as="geometry">
            <mxPoint x="-27" y="7" as="offset" />
          </mxGeometry>
        </mxCell>
        <mxCell id="GRHGdQOCwn_ax3H8r1Y7-78" value="&amp;nbsp; &amp;nbsp; &amp;nbsp; &amp;nbsp; &amp;nbsp; &amp;nbsp; Top N" style="html=1;dropTarget=0;whiteSpace=wrap;align=left;" parent="1" vertex="1">
          <mxGeometry x="712" y="330" width="130" height="40" as="geometry" />
        </mxCell>
        <mxCell id="GRHGdQOCwn_ax3H8r1Y7-79" value="" style="shape=module;jettyWidth=8;jettyHeight=4;" parent="GRHGdQOCwn_ax3H8r1Y7-78" vertex="1">
          <mxGeometry x="1" width="20" height="20" relative="1" as="geometry">
            <mxPoint x="-27" y="7" as="offset" />
          </mxGeometry>
        </mxCell>
        <mxCell id="GRHGdQOCwn_ax3H8r1Y7-81" value="&amp;nbsp; &amp;nbsp; &amp;nbsp; &amp;nbsp; &amp;nbsp; Counter" style="html=1;dropTarget=0;whiteSpace=wrap;align=left;" parent="1" vertex="1">
          <mxGeometry x="712" y="280" width="130" height="40" as="geometry" />
        </mxCell>
        <mxCell id="GRHGdQOCwn_ax3H8r1Y7-82" value="" style="shape=module;jettyWidth=8;jettyHeight=4;" parent="GRHGdQOCwn_ax3H8r1Y7-81" vertex="1">
          <mxGeometry x="1" width="20" height="20" relative="1" as="geometry">
            <mxPoint x="-27" y="7" as="offset" />
          </mxGeometry>
        </mxCell>
        <mxCell id="GRHGdQOCwn_ax3H8r1Y7-85" value="&amp;nbsp; &amp;nbsp; &amp;nbsp; &amp;nbsp; &amp;nbsp; &amp;nbsp; &amp;nbsp; Avg" style="html=1;dropTarget=0;whiteSpace=wrap;align=left;" parent="1" vertex="1">
          <mxGeometry x="712" y="380" width="130" height="40" as="geometry" />
        </mxCell>
        <mxCell id="GRHGdQOCwn_ax3H8r1Y7-86" value="" style="shape=module;jettyWidth=8;jettyHeight=4;" parent="GRHGdQOCwn_ax3H8r1Y7-85" vertex="1">
          <mxGeometry x="1" width="20" height="20" relative="1" as="geometry">
            <mxPoint x="-27" y="7" as="offset" />
          </mxGeometry>
        </mxCell>
        <mxCell id="GRHGdQOCwn_ax3H8r1Y7-87" style="edgeStyle=orthogonalEdgeStyle;rounded=0;orthogonalLoop=1;jettySize=auto;html=1;entryX=-0.015;entryY=0.557;entryDx=0;entryDy=0;entryPerimeter=0;startArrow=classic;startFill=1;" parent="1" source="GRHGdQOCwn_ax3H8r1Y7-1" target="GRHGdQOCwn_ax3H8r1Y7-71" edge="1">
          <mxGeometry relative="1" as="geometry" />
        </mxCell>
        <mxCell id="NBwVlWkkZ7SrpcwTBWHO-1" value="" style="shape=cube;whiteSpace=wrap;html=1;boundedLbl=1;backgroundOutline=1;darkOpacity=0.05;darkOpacity2=0.1;" parent="1" vertex="1">
          <mxGeometry x="650" y="500" width="212" height="120" as="geometry" />
        </mxCell>
        <mxCell id="NBwVlWkkZ7SrpcwTBWHO-2" value="&lt;div style=&quot;&quot;&gt;&lt;b style=&quot;background-color: transparent; color: light-dark(rgb(0, 0, 0), rgb(255, 255, 255));&quot;&gt;&lt;u&gt;Node: Report Generator&lt;/u&gt;&lt;/b&gt;&lt;/div&gt;" style="text;html=1;align=center;verticalAlign=middle;whiteSpace=wrap;rounded=0;" parent="1" vertex="1">
          <mxGeometry x="668" y="520" width="162" height="30" as="geometry" />
        </mxCell>
        <mxCell id="NBwVlWkkZ7SrpcwTBWHO-3" value="&lt;b&gt;&amp;nbsp; &amp;nbsp; &amp;nbsp; &amp;nbsp; &amp;nbsp; &amp;nbsp;Report&amp;nbsp;&lt;/b&gt;&lt;div&gt;&lt;b&gt;&amp;nbsp; &amp;nbsp; &amp;nbsp; &amp;nbsp; Generator&lt;/b&gt;&lt;/div&gt;" style="html=1;dropTarget=0;whiteSpace=wrap;align=left;" parent="1" vertex="1">
          <mxGeometry x="702" y="560" width="130" height="40" as="geometry" />
        </mxCell>
        <mxCell id="NBwVlWkkZ7SrpcwTBWHO-4" value="" style="shape=module;jettyWidth=8;jettyHeight=4;" parent="NBwVlWkkZ7SrpcwTBWHO-3" vertex="1">
          <mxGeometry x="1" width="20" height="20" relative="1" as="geometry">
            <mxPoint x="-27" y="7" as="offset" />
          </mxGeometry>
        </mxCell>
        <mxCell id="NBwVlWkkZ7SrpcwTBWHO-5" style="edgeStyle=orthogonalEdgeStyle;rounded=0;orthogonalLoop=1;jettySize=auto;html=1;exitX=0;exitY=0;exitDx=96;exitDy=0;exitPerimeter=0;entryX=0.891;entryY=1.009;entryDx=0;entryDy=0;entryPerimeter=0;startArrow=classic;startFill=1;" parent="1" source="NBwVlWkkZ7SrpcwTBWHO-1" target="GRHGdQOCwn_ax3H8r1Y7-1" edge="1">
          <mxGeometry relative="1" as="geometry">
            <Array as="points">
              <mxPoint x="746" y="460" />
              <mxPoint x="610" y="460" />
              <mxPoint x="610" y="400" />
              <mxPoint x="527" y="400" />
            </Array>
          </mxGeometry>
        </mxCell>
        <mxCell id="NBwVlWkkZ7SrpcwTBWHO-6" value="." style="text;html=1;align=center;verticalAlign=middle;whiteSpace=wrap;rounded=0;fontSize=1;" parent="1" vertex="1">
          <mxGeometry x="446" y="660" width="60" height="30" as="geometry" />
        </mxCell>
      </root>
    </mxGraphModel>
  </diagram>
  <diagram id="9MFNm8XzXK_PyassC8K9" name="PÃ¡gina-2">
    <mxGraphModel dx="2261" dy="835" grid="1" gridSize="10" guides="1" tooltips="1" connect="1" arrows="1" fold="1" page="1" pageScale="1" pageWidth="827" pageHeight="1169" math="0" shadow="0">
      <root>
        <mxCell id="0" />
        <mxCell id="1" parent="0" />
        <mxCell id="X65JAUY1aX-iVHoxuwN5-1" value="" style="shape=cube;whiteSpace=wrap;html=1;boundedLbl=1;backgroundOutline=1;darkOpacity=0.05;darkOpacity2=0.1;" parent="1" vertex="1">
          <mxGeometry x="340" y="430" width="212" height="120" as="geometry" />
        </mxCell>
        <mxCell id="X65JAUY1aX-iVHoxuwN5-2" value="" style="shape=cube;whiteSpace=wrap;html=1;boundedLbl=1;backgroundOutline=1;darkOpacity=0.05;darkOpacity2=0.1;" parent="1" vertex="1">
          <mxGeometry x="-7" y="380" width="212" height="250" as="geometry" />
        </mxCell>
        <mxCell id="X65JAUY1aX-iVHoxuwN5-3" value="" style="shape=cube;whiteSpace=wrap;html=1;boundedLbl=1;backgroundOutline=1;darkOpacity=0.05;darkOpacity2=0.1;" parent="1" vertex="1">
          <mxGeometry x="-15" y="60" width="212" height="250" as="geometry" />
        </mxCell>
        <mxCell id="X65JAUY1aX-iVHoxuwN5-4" style="edgeStyle=orthogonalEdgeStyle;rounded=0;orthogonalLoop=1;jettySize=auto;html=1;startArrow=classic;startFill=1;" parent="1" source="X65JAUY1aX-iVHoxuwN5-5" edge="1">
          <mxGeometry relative="1" as="geometry">
            <mxPoint x="444" y="130" as="targetPoint" />
          </mxGeometry>
        </mxCell>
        <mxCell id="X65JAUY1aX-iVHoxuwN5-5" value="" style="shape=cube;whiteSpace=wrap;html=1;boundedLbl=1;backgroundOutline=1;darkOpacity=0.05;darkOpacity2=0.1;" parent="1" vertex="1">
          <mxGeometry x="338" y="230" width="212" height="120" as="geometry" />
        </mxCell>
        <mxCell id="X65JAUY1aX-iVHoxuwN5-6" value="&lt;b&gt;&lt;u&gt;Node: MOM Broker&lt;/u&gt;&lt;/b&gt;" style="text;html=1;align=center;verticalAlign=middle;whiteSpace=wrap;rounded=0;" parent="1" vertex="1">
          <mxGeometry x="360" y="250" width="120" height="30" as="geometry" />
        </mxCell>
        <mxCell id="X65JAUY1aX-iVHoxuwN5-7" value="&lt;b&gt;&amp;nbsp; &amp;nbsp; &amp;nbsp; &amp;nbsp; RabbitMQ&lt;/b&gt;" style="html=1;dropTarget=0;whiteSpace=wrap;align=left;" parent="1" vertex="1">
          <mxGeometry x="390" y="290" width="130" height="40" as="geometry" />
        </mxCell>
        <mxCell id="X65JAUY1aX-iVHoxuwN5-8" value="" style="shape=module;jettyWidth=8;jettyHeight=4;" parent="X65JAUY1aX-iVHoxuwN5-7" vertex="1">
          <mxGeometry x="1" width="20" height="20" relative="1" as="geometry">
            <mxPoint x="-27" y="7" as="offset" />
          </mxGeometry>
        </mxCell>
        <mxCell id="X65JAUY1aX-iVHoxuwN5-9" value="" style="shape=cube;whiteSpace=wrap;html=1;boundedLbl=1;backgroundOutline=1;darkOpacity=0.05;darkOpacity2=0.1;" parent="1" vertex="1">
          <mxGeometry x="650" y="60" width="212" height="120" as="geometry" />
        </mxCell>
        <mxCell id="X65JAUY1aX-iVHoxuwN5-10" value="&lt;div style=&quot;&quot;&gt;&lt;b style=&quot;background-color: transparent; color: light-dark(rgb(0, 0, 0), rgb(255, 255, 255));&quot;&gt;&lt;u&gt;Node: Client&lt;/u&gt;&lt;/b&gt;&lt;/div&gt;" style="text;html=1;align=center;verticalAlign=middle;whiteSpace=wrap;rounded=0;" parent="1" vertex="1">
          <mxGeometry x="668" y="80" width="92" height="30" as="geometry" />
        </mxCell>
        <mxCell id="X65JAUY1aX-iVHoxuwN5-11" value="&lt;b&gt;&amp;nbsp; &amp;nbsp; &amp;nbsp; Application&lt;/b&gt;" style="html=1;dropTarget=0;whiteSpace=wrap;align=left;" parent="1" vertex="1">
          <mxGeometry x="702" y="120" width="130" height="40" as="geometry" />
        </mxCell>
        <mxCell id="X65JAUY1aX-iVHoxuwN5-12" value="" style="shape=module;jettyWidth=8;jettyHeight=4;" parent="X65JAUY1aX-iVHoxuwN5-11" vertex="1">
          <mxGeometry x="1" width="20" height="20" relative="1" as="geometry">
            <mxPoint x="-27" y="7" as="offset" />
          </mxGeometry>
        </mxCell>
        <mxCell id="X65JAUY1aX-iVHoxuwN5-13" value="" style="shape=cube;whiteSpace=wrap;html=1;boundedLbl=1;backgroundOutline=1;darkOpacity=0.05;darkOpacity2=0.1;" parent="1" vertex="1">
          <mxGeometry x="20" y="90" width="212" height="250" as="geometry" />
        </mxCell>
        <mxCell id="X65JAUY1aX-iVHoxuwN5-14" value="&lt;div style=&quot;&quot;&gt;&lt;b style=&quot;background-color: transparent; color: light-dark(rgb(0, 0, 0), rgb(255, 255, 255));&quot;&gt;&lt;u&gt;Node: Filter&lt;/u&gt;&lt;/b&gt;&lt;/div&gt;" style="text;html=1;align=center;verticalAlign=middle;whiteSpace=wrap;rounded=0;" parent="1" vertex="1">
          <mxGeometry x="38" y="110" width="92" height="30" as="geometry" />
        </mxCell>
        <mxCell id="X65JAUY1aX-iVHoxuwN5-15" value="" style="shape=cube;whiteSpace=wrap;html=1;boundedLbl=1;backgroundOutline=1;darkOpacity=0.05;darkOpacity2=0.1;" parent="1" vertex="1">
          <mxGeometry x="370" y="460" width="212" height="120" as="geometry" />
        </mxCell>
        <mxCell id="X65JAUY1aX-iVHoxuwN5-16" value="&lt;b&gt;&lt;u&gt;Node: NLP&lt;/u&gt;&lt;/b&gt;" style="text;html=1;align=center;verticalAlign=middle;whiteSpace=wrap;rounded=0;" parent="1" vertex="1">
          <mxGeometry x="392" y="480" width="80" height="30" as="geometry" />
        </mxCell>
        <mxCell id="X65JAUY1aX-iVHoxuwN5-17" value="&lt;b&gt;&amp;nbsp; &amp;nbsp; &amp;nbsp; Sentiment&lt;/b&gt;&lt;div&gt;&lt;b&gt;&amp;nbsp; &amp;nbsp; &amp;nbsp; &amp;nbsp;Analyzer&lt;/b&gt;&lt;/div&gt;" style="html=1;dropTarget=0;whiteSpace=wrap;align=left;" parent="1" vertex="1">
          <mxGeometry x="422" y="520" width="130" height="40" as="geometry" />
        </mxCell>
        <mxCell id="X65JAUY1aX-iVHoxuwN5-18" value="" style="shape=module;jettyWidth=8;jettyHeight=4;" parent="X65JAUY1aX-iVHoxuwN5-17" vertex="1">
          <mxGeometry x="1" width="20" height="20" relative="1" as="geometry">
            <mxPoint x="-27" y="7" as="offset" />
          </mxGeometry>
        </mxCell>
        <mxCell id="X65JAUY1aX-iVHoxuwN5-19" value="&lt;b&gt;&amp;nbsp; &amp;nbsp; &amp;nbsp; RuleEngine&lt;/b&gt;" style="html=1;dropTarget=0;whiteSpace=wrap;align=left;" parent="1" vertex="1">
          <mxGeometry x="70" y="150" width="130" height="40" as="geometry" />
        </mxCell>
        <mxCell id="X65JAUY1aX-iVHoxuwN5-20" value="" style="shape=module;jettyWidth=8;jettyHeight=4;" parent="X65JAUY1aX-iVHoxuwN5-19" vertex="1">
          <mxGeometry x="1" width="20" height="20" relative="1" as="geometry">
            <mxPoint x="-27" y="7" as="offset" />
          </mxGeometry>
        </mxCell>
        <mxCell id="X65JAUY1aX-iVHoxuwN5-21" value="&lt;span style=&quot;color: rgba(0, 0, 0, 0); font-family: monospace; font-size: 0px; text-align: start; text-wrap-mode: nowrap;&quot;&gt;%3CmxGraphModel%3E%3Croot%3E%3CmxCell%20id%3D%220%22%2F%3E%3CmxCell%20id%3D%221%22%20parent%3D%220%22%2F%3E%3CmxCell%20id%3D%222%22%20value%3D%22%26lt%3Bdiv%20style%3D%26quot%3B%26quot%3B%26gt%3B%26lt%3Bb%20style%3D%26quot%3Bbackground-color%3A%20transparent%3B%20color%3A%20light-dark(rgb(0%2C%200%2C%200)%2C%20rgb(255%2C%20255%2C%20255))%3B%26quot%3B%26gt%3B%26lt%3Bu%26gt%3BNode%3A%20Filter%26lt%3B%2Fu%26gt%3B%26lt%3B%2Fb%26gt%3B%26lt%3B%2Fdiv%26gt%3B%22%20style%3D%22text%3Bhtml%3D1%3Balign%3Dcenter%3BverticalAlign%3Dmiddle%3BwhiteSpace%3Dwrap%3Brounded%3D0%3B%22%20vertex%3D%221%22%20parent%3D%221%22%3E%3CmxGeometry%20x%3D%2268%22%20y%3D%22180%22%20width%3D%2292%22%20height%3D%2230%22%20as%3D%22geometry%22%2F%3E%3C%2FmxCell%3E%3C%2Froot%3E%3C%2FmxGraphModel%3E&lt;/span&gt;" style="shape=cube;whiteSpace=wrap;html=1;boundedLbl=1;backgroundOutline=1;darkOpacity=0.05;darkOpacity2=0.1;" parent="1" vertex="1">
          <mxGeometry x="55" y="200" width="160" height="110" as="geometry" />
        </mxCell>
        <mxCell id="X65JAUY1aX-iVHoxuwN5-22" value="&lt;div&gt;&lt;b&gt;&amp;nbsp; &amp;nbsp;&amp;lt;&amp;lt;Thread&amp;gt;&amp;gt;&lt;/b&gt;&lt;/div&gt;" style="text;html=1;align=left;verticalAlign=middle;whiteSpace=wrap;rounded=0;fontSize=10;" parent="1" vertex="1">
          <mxGeometry x="75" y="220" width="92" height="30" as="geometry" />
        </mxCell>
        <mxCell id="X65JAUY1aX-iVHoxuwN5-23" value="&lt;b&gt;&lt;font style=&quot;font-size: 10px;&quot;&gt;&amp;nbsp; &amp;nbsp; &amp;nbsp; &amp;nbsp; &amp;nbsp; &amp;nbsp; &amp;nbsp;Filter&lt;/font&gt;&lt;/b&gt;" style="html=1;dropTarget=0;whiteSpace=wrap;align=left;" parent="1" vertex="1">
          <mxGeometry x="97" y="270" width="108" height="30" as="geometry" />
        </mxCell>
        <mxCell id="X65JAUY1aX-iVHoxuwN5-24" value="" style="shape=module;jettyWidth=8;jettyHeight=4;" parent="X65JAUY1aX-iVHoxuwN5-23" vertex="1">
          <mxGeometry x="1" width="20" height="20" relative="1" as="geometry">
            <mxPoint x="-27" y="7" as="offset" />
          </mxGeometry>
        </mxCell>
        <mxCell id="X65JAUY1aX-iVHoxuwN5-25" value="&lt;div&gt;&lt;b&gt;Worker 1&lt;/b&gt;&lt;/div&gt;" style="text;html=1;align=center;verticalAlign=middle;whiteSpace=wrap;rounded=0;fontSize=10;" parent="1" vertex="1">
          <mxGeometry x="105" y="240" width="92" height="30" as="geometry" />
        </mxCell>
        <mxCell id="X65JAUY1aX-iVHoxuwN5-26" value="&lt;b&gt;&lt;font style=&quot;font-size: 41px;&quot;&gt;...&lt;/font&gt;&lt;/b&gt;" style="text;html=1;align=center;verticalAlign=middle;whiteSpace=wrap;rounded=0;" parent="1" vertex="1">
          <mxGeometry x="107" y="300" width="60" height="30" as="geometry" />
        </mxCell>
        <mxCell id="X65JAUY1aX-iVHoxuwN5-27" value="" style="shape=cube;whiteSpace=wrap;html=1;boundedLbl=1;backgroundOutline=1;darkOpacity=0.05;darkOpacity2=0.1;" parent="1" vertex="1">
          <mxGeometry x="29" y="410" width="212" height="250" as="geometry" />
        </mxCell>
        <mxCell id="X65JAUY1aX-iVHoxuwN5-28" value="&lt;div style=&quot;&quot;&gt;&lt;b style=&quot;background-color: transparent; color: light-dark(rgb(0, 0, 0), rgb(255, 255, 255));&quot;&gt;&lt;u&gt;Node: Group By&lt;/u&gt;&lt;/b&gt;&lt;/div&gt;" style="text;html=1;align=center;verticalAlign=middle;whiteSpace=wrap;rounded=0;" parent="1" vertex="1">
          <mxGeometry x="47" y="430" width="123" height="30" as="geometry" />
        </mxCell>
        <mxCell id="X65JAUY1aX-iVHoxuwN5-29" value="&lt;b&gt;&amp;nbsp; &amp;nbsp; &amp;nbsp; RuleEngine&lt;/b&gt;" style="html=1;dropTarget=0;whiteSpace=wrap;align=left;" parent="1" vertex="1">
          <mxGeometry x="79" y="470" width="130" height="40" as="geometry" />
        </mxCell>
        <mxCell id="X65JAUY1aX-iVHoxuwN5-30" value="" style="shape=module;jettyWidth=8;jettyHeight=4;" parent="X65JAUY1aX-iVHoxuwN5-29" vertex="1">
          <mxGeometry x="1" width="20" height="20" relative="1" as="geometry">
            <mxPoint x="-27" y="7" as="offset" />
          </mxGeometry>
        </mxCell>
        <mxCell id="X65JAUY1aX-iVHoxuwN5-31" value="&lt;span style=&quot;color: rgba(0, 0, 0, 0); font-family: monospace; font-size: 0px; text-align: start; text-wrap-mode: nowrap;&quot;&gt;%3CmxGraphModel%3E%3Croot%3E%3CmxCell%20id%3D%220%22%2F%3E%3CmxCell%20id%3D%221%22%20parent%3D%220%22%2F%3E%3CmxCell%20id%3D%222%22%20value%3D%22%26lt%3Bdiv%20style%3D%26quot%3B%26quot%3B%26gt%3B%26lt%3Bb%20style%3D%26quot%3Bbackground-color%3A%20transparent%3B%20color%3A%20light-dark(rgb(0%2C%200%2C%200)%2C%20rgb(255%2C%20255%2C%20255))%3B%26quot%3B%26gt%3B%26lt%3Bu%26gt%3BNode%3A%20Filter%26lt%3B%2Fu%26gt%3B%26lt%3B%2Fb%26gt%3B%26lt%3B%2Fdiv%26gt%3B%22%20style%3D%22text%3Bhtml%3D1%3Balign%3Dcenter%3BverticalAlign%3Dmiddle%3BwhiteSpace%3Dwrap%3Brounded%3D0%3B%22%20vertex%3D%221%22%20parent%3D%221%22%3E%3CmxGeometry%20x%3D%2268%22%20y%3D%22180%22%20width%3D%2292%22%20height%3D%2230%22%20as%3D%22geometry%22%2F%3E%3C%2FmxCell%3E%3C%2Froot%3E%3C%2FmxGraphModel%3E&lt;/span&gt;" style="shape=cube;whiteSpace=wrap;html=1;boundedLbl=1;backgroundOutline=1;darkOpacity=0.05;darkOpacity2=0.1;" parent="1" vertex="1">
          <mxGeometry x="64" y="520" width="160" height="110" as="geometry" />
        </mxCell>
        <mxCell id="X65JAUY1aX-iVHoxuwN5-32" value="&lt;div&gt;&lt;b&gt;&amp;nbsp; &amp;nbsp;&amp;lt;&amp;lt;Thread&amp;gt;&amp;gt;&lt;/b&gt;&lt;/div&gt;" style="text;html=1;align=left;verticalAlign=middle;whiteSpace=wrap;rounded=0;fontSize=10;" parent="1" vertex="1">
          <mxGeometry x="84" y="540" width="92" height="30" as="geometry" />
        </mxCell>
        <mxCell id="X65JAUY1aX-iVHoxuwN5-33" value="&lt;b&gt;&lt;font style=&quot;font-size: 10px;&quot;&gt;&amp;nbsp; &amp;nbsp; &amp;nbsp; &amp;nbsp;Group By&lt;/font&gt;&lt;/b&gt;" style="html=1;dropTarget=0;whiteSpace=wrap;align=left;" parent="1" vertex="1">
          <mxGeometry x="106" y="590" width="108" height="30" as="geometry" />
        </mxCell>
        <mxCell id="X65JAUY1aX-iVHoxuwN5-34" value="" style="shape=module;jettyWidth=8;jettyHeight=4;" parent="X65JAUY1aX-iVHoxuwN5-33" vertex="1">
          <mxGeometry x="1" width="20" height="20" relative="1" as="geometry">
            <mxPoint x="-27" y="7" as="offset" />
          </mxGeometry>
        </mxCell>
        <mxCell id="X65JAUY1aX-iVHoxuwN5-35" value="&lt;div&gt;&lt;b&gt;Worker 1&lt;/b&gt;&lt;/div&gt;" style="text;html=1;align=center;verticalAlign=middle;whiteSpace=wrap;rounded=0;fontSize=10;" parent="1" vertex="1">
          <mxGeometry x="114" y="560" width="92" height="30" as="geometry" />
        </mxCell>
        <mxCell id="X65JAUY1aX-iVHoxuwN5-36" value="&lt;b&gt;&lt;font style=&quot;font-size: 41px;&quot;&gt;...&lt;/font&gt;&lt;/b&gt;" style="text;html=1;align=center;verticalAlign=middle;whiteSpace=wrap;rounded=0;" parent="1" vertex="1">
          <mxGeometry x="116" y="620" width="60" height="30" as="geometry" />
        </mxCell>
        <mxCell id="X65JAUY1aX-iVHoxuwN5-37" style="edgeStyle=orthogonalEdgeStyle;rounded=0;orthogonalLoop=1;jettySize=auto;html=1;exitX=0;exitY=0;exitDx=212;exitDy=135;exitPerimeter=0;entryX=0.005;entryY=0.344;entryDx=0;entryDy=0;entryPerimeter=0;startArrow=classic;startFill=1;" parent="1" source="X65JAUY1aX-iVHoxuwN5-13" target="X65JAUY1aX-iVHoxuwN5-5" edge="1">
          <mxGeometry relative="1" as="geometry">
            <Array as="points">
              <mxPoint x="280" y="225" />
              <mxPoint x="280" y="271" />
            </Array>
          </mxGeometry>
        </mxCell>
        <mxCell id="X65JAUY1aX-iVHoxuwN5-38" style="edgeStyle=orthogonalEdgeStyle;rounded=0;orthogonalLoop=1;jettySize=auto;html=1;exitX=0;exitY=0;exitDx=212;exitDy=135;exitPerimeter=0;startArrow=blockThin;startFill=1;entryX=0.009;entryY=0.667;entryDx=0;entryDy=0;entryPerimeter=0;" parent="1" source="X65JAUY1aX-iVHoxuwN5-27" target="X65JAUY1aX-iVHoxuwN5-5" edge="1">
          <mxGeometry relative="1" as="geometry">
            <mxPoint x="336" y="300" as="targetPoint" />
            <Array as="points">
              <mxPoint x="280" y="545" />
              <mxPoint x="280" y="310" />
            </Array>
          </mxGeometry>
        </mxCell>
        <mxCell id="X65JAUY1aX-iVHoxuwN5-39" style="edgeStyle=orthogonalEdgeStyle;rounded=0;orthogonalLoop=1;jettySize=auto;html=1;exitX=0;exitY=0;exitDx=115.99999999999999;exitDy=120.00000000000001;exitPerimeter=0;entryX=0.539;entryY=0;entryDx=0;entryDy=0;entryPerimeter=0;startArrow=classic;startFill=1;" parent="1" source="X65JAUY1aX-iVHoxuwN5-5" target="X65JAUY1aX-iVHoxuwN5-1" edge="1">
          <mxGeometry relative="1" as="geometry" />
        </mxCell>
        <mxCell id="X65JAUY1aX-iVHoxuwN5-41" value="" style="shape=cube;whiteSpace=wrap;html=1;boundedLbl=1;backgroundOutline=1;darkOpacity=0.05;darkOpacity2=0.1;" parent="1" vertex="1">
          <mxGeometry x="650" y="227" width="212" height="270" as="geometry" />
        </mxCell>
        <mxCell id="X65JAUY1aX-iVHoxuwN5-42" value="&lt;b&gt;&lt;u&gt;Node: Aggregator&lt;/u&gt;&lt;/b&gt;" style="text;html=1;align=center;verticalAlign=middle;whiteSpace=wrap;rounded=0;" parent="1" vertex="1">
          <mxGeometry x="673" y="247" width="128" height="30" as="geometry" />
        </mxCell>
        <mxCell id="X65JAUY1aX-iVHoxuwN5-43" value="&lt;b&gt;&amp;nbsp; &amp;nbsp; &amp;nbsp; RuleEngine&lt;/b&gt;" style="html=1;dropTarget=0;whiteSpace=wrap;align=left;" parent="1" vertex="1">
          <mxGeometry x="703" y="284.5" width="130" height="40" as="geometry" />
        </mxCell>
        <mxCell id="X65JAUY1aX-iVHoxuwN5-44" value="" style="shape=module;jettyWidth=8;jettyHeight=4;" parent="X65JAUY1aX-iVHoxuwN5-43" vertex="1">
          <mxGeometry x="1" width="20" height="20" relative="1" as="geometry">
            <mxPoint x="-27" y="7" as="offset" />
          </mxGeometry>
        </mxCell>
        <mxCell id="X65JAUY1aX-iVHoxuwN5-45" value="&amp;nbsp; &amp;nbsp; &amp;nbsp; &amp;nbsp; &amp;nbsp; &amp;nbsp; Top N" style="html=1;dropTarget=0;whiteSpace=wrap;align=left;" parent="1" vertex="1">
          <mxGeometry x="703" y="387" width="130" height="40" as="geometry" />
        </mxCell>
        <mxCell id="X65JAUY1aX-iVHoxuwN5-46" value="" style="shape=module;jettyWidth=8;jettyHeight=4;" parent="X65JAUY1aX-iVHoxuwN5-45" vertex="1">
          <mxGeometry x="1" width="20" height="20" relative="1" as="geometry">
            <mxPoint x="-27" y="7" as="offset" />
          </mxGeometry>
        </mxCell>
        <mxCell id="X65JAUY1aX-iVHoxuwN5-47" value="&amp;nbsp; &amp;nbsp; &amp;nbsp; &amp;nbsp; &amp;nbsp; Counter" style="html=1;dropTarget=0;whiteSpace=wrap;align=left;" parent="1" vertex="1">
          <mxGeometry x="703" y="337" width="130" height="40" as="geometry" />
        </mxCell>
        <mxCell id="X65JAUY1aX-iVHoxuwN5-48" value="" style="shape=module;jettyWidth=8;jettyHeight=4;" parent="X65JAUY1aX-iVHoxuwN5-47" vertex="1">
          <mxGeometry x="1" width="20" height="20" relative="1" as="geometry">
            <mxPoint x="-27" y="7" as="offset" />
          </mxGeometry>
        </mxCell>
        <mxCell id="X65JAUY1aX-iVHoxuwN5-49" value="&amp;nbsp; &amp;nbsp; &amp;nbsp; &amp;nbsp; &amp;nbsp; &amp;nbsp; &amp;nbsp; Avg" style="html=1;dropTarget=0;whiteSpace=wrap;align=left;" parent="1" vertex="1">
          <mxGeometry x="703" y="437" width="130" height="40" as="geometry" />
        </mxCell>
        <mxCell id="X65JAUY1aX-iVHoxuwN5-50" value="" style="shape=module;jettyWidth=8;jettyHeight=4;" parent="X65JAUY1aX-iVHoxuwN5-49" vertex="1">
          <mxGeometry x="1" width="20" height="20" relative="1" as="geometry">
            <mxPoint x="-27" y="7" as="offset" />
          </mxGeometry>
        </mxCell>
        <mxCell id="X65JAUY1aX-iVHoxuwN5-51" style="edgeStyle=orthogonalEdgeStyle;rounded=0;orthogonalLoop=1;jettySize=auto;html=1;entryX=0;entryY=0.446;entryDx=0;entryDy=0;entryPerimeter=0;startArrow=classic;startFill=1;" parent="1" source="X65JAUY1aX-iVHoxuwN5-5" target="X65JAUY1aX-iVHoxuwN5-41" edge="1">
          <mxGeometry relative="1" as="geometry">
            <mxPoint x="626.8200000000002" y="290.3900000000001" as="targetPoint" />
          </mxGeometry>
        </mxCell>
        <mxCell id="X65JAUY1aX-iVHoxuwN5-52" value="" style="shape=cube;whiteSpace=wrap;html=1;boundedLbl=1;backgroundOutline=1;darkOpacity=0.05;darkOpacity2=0.1;" parent="1" vertex="1">
          <mxGeometry x="650" y="557" width="212" height="120" as="geometry" />
        </mxCell>
        <mxCell id="X65JAUY1aX-iVHoxuwN5-53" value="&lt;div style=&quot;&quot;&gt;&lt;b style=&quot;background-color: transparent; color: light-dark(rgb(0, 0, 0), rgb(255, 255, 255));&quot;&gt;&lt;u&gt;Node: Report Generator&lt;/u&gt;&lt;/b&gt;&lt;/div&gt;" style="text;html=1;align=center;verticalAlign=middle;whiteSpace=wrap;rounded=0;" parent="1" vertex="1">
          <mxGeometry x="668" y="577" width="162" height="30" as="geometry" />
        </mxCell>
        <mxCell id="X65JAUY1aX-iVHoxuwN5-54" value="&lt;b&gt;&amp;nbsp; &amp;nbsp; &amp;nbsp; &amp;nbsp; &amp;nbsp; &amp;nbsp;Report&amp;nbsp;&lt;/b&gt;&lt;div&gt;&lt;b&gt;&amp;nbsp; &amp;nbsp; &amp;nbsp; &amp;nbsp; Generator&lt;/b&gt;&lt;/div&gt;" style="html=1;dropTarget=0;whiteSpace=wrap;align=left;" parent="1" vertex="1">
          <mxGeometry x="702" y="617" width="130" height="40" as="geometry" />
        </mxCell>
        <mxCell id="X65JAUY1aX-iVHoxuwN5-55" value="" style="shape=module;jettyWidth=8;jettyHeight=4;" parent="X65JAUY1aX-iVHoxuwN5-54" vertex="1">
          <mxGeometry x="1" width="20" height="20" relative="1" as="geometry">
            <mxPoint x="-27" y="7" as="offset" />
          </mxGeometry>
        </mxCell>
        <mxCell id="X65JAUY1aX-iVHoxuwN5-56" style="edgeStyle=orthogonalEdgeStyle;rounded=0;orthogonalLoop=1;jettySize=auto;html=1;exitX=0;exitY=0;exitDx=96;exitDy=0;exitPerimeter=0;entryX=0.891;entryY=1.009;entryDx=0;entryDy=0;entryPerimeter=0;startArrow=classic;startFill=1;" parent="1" source="X65JAUY1aX-iVHoxuwN5-52" target="X65JAUY1aX-iVHoxuwN5-5" edge="1">
          <mxGeometry relative="1" as="geometry">
            <Array as="points">
              <mxPoint x="746" y="520" />
              <mxPoint x="610" y="520" />
              <mxPoint x="610" y="400" />
              <mxPoint x="527" y="400" />
            </Array>
          </mxGeometry>
        </mxCell>
        <mxCell id="X65JAUY1aX-iVHoxuwN5-57" value="." style="text;html=1;align=center;verticalAlign=middle;whiteSpace=wrap;rounded=0;fontSize=1;" parent="1" vertex="1">
          <mxGeometry x="446" y="660" width="60" height="30" as="geometry" />
        </mxCell>
        <mxCell id="S5YIdJj7-oD6EVbVW81k-2" value="" style="shape=cube;whiteSpace=wrap;html=1;boundedLbl=1;backgroundOutline=1;darkOpacity=0.05;darkOpacity2=0.1;" vertex="1" parent="1">
          <mxGeometry x="340" y="10" width="212" height="120" as="geometry" />
        </mxCell>
        <mxCell id="S5YIdJj7-oD6EVbVW81k-3" value="&lt;div style=&quot;&quot;&gt;&lt;b style=&quot;background-color: transparent; color: light-dark(rgb(0, 0, 0), rgb(255, 255, 255));&quot;&gt;&lt;u&gt;Node: Gateway&lt;/u&gt;&lt;/b&gt;&lt;/div&gt;" style="text;html=1;align=center;verticalAlign=middle;whiteSpace=wrap;rounded=0;" vertex="1" parent="1">
          <mxGeometry x="366" y="30" width="92" height="30" as="geometry" />
        </mxCell>
        <mxCell id="S5YIdJj7-oD6EVbVW81k-4" value="&lt;b&gt;&lt;span style=&quot;white-space: pre;&quot;&gt;&#x9;&lt;/span&gt;Gateway&lt;/b&gt;" style="html=1;dropTarget=0;whiteSpace=wrap;align=left;" vertex="1" parent="1">
          <mxGeometry x="392" y="70" width="130" height="40" as="geometry" />
        </mxCell>
        <mxCell id="S5YIdJj7-oD6EVbVW81k-5" value="" style="shape=module;jettyWidth=8;jettyHeight=4;" vertex="1" parent="S5YIdJj7-oD6EVbVW81k-4">
          <mxGeometry x="1" width="20" height="20" relative="1" as="geometry">
            <mxPoint x="-27" y="7" as="offset" />
          </mxGeometry>
        </mxCell>
        <mxCell id="S5YIdJj7-oD6EVbVW81k-8" value="" style="endArrow=classic;startArrow=classic;html=1;rounded=0;exitX=1.005;exitY=0.475;exitDx=0;exitDy=0;exitPerimeter=0;entryX=-0.009;entryY=0.533;entryDx=0;entryDy=0;entryPerimeter=0;" edge="1" parent="1" source="S5YIdJj7-oD6EVbVW81k-2" target="X65JAUY1aX-iVHoxuwN5-9">
          <mxGeometry width="50" height="50" relative="1" as="geometry">
            <mxPoint x="610" y="340" as="sourcePoint" />
            <mxPoint x="660" y="290" as="targetPoint" />
          </mxGeometry>
        </mxCell>
      </root>
    </mxGraphModel>
  </diagram>
</mxfile>
